Coordinates
version=1
nRows=6
nColumns=46
inDegrees=yes

Units are S.I. units (second, meters, Newtons, ...)
Angles are in degrees.

endheader
time	pelvis_tilt	pelvis_list	pelvis_rotation	pelvis_tx	pelvis_ty	pelvis_tz	bb_angle	bb_tx	bb_ty	bb_tz	hip_flexion_r	hip_adduction_r	hip_rotation_r	knee_angle_r	knee_angle_r_beta	ankle_angle_r	subtalar_angle_r	mtp_angle_r	crank_angle_r	hip_flexion_l	hip_adduction_l	hip_rotation_l	knee_angle_l	knee_angle_l_beta	ankle_angle_l	subtalar_angle_l	mtp_angle_l	crank_angle_l	lumbar_extension	lumbar_bending	lumbar_rotation	arm_flex_r	arm_add_r	arm_rot_r	elbow_flex_r	pro_sup_r	wrist_flex_r	wrist_dev_r	arm_flex_l	arm_add_l	arm_rot_l	elbow_flex_l	pro_sup_l	wrist_flex_l	wrist_dev_l
      7.50000000	    -17.51767868	     -3.68222834	     -7.35681272	      0.15727371	      1.15219592	     -0.23592384	      0.00000000	      0.50000000	      0.00000000	      0.25000000	     66.10713612	      6.44767625	      6.14964647	     61.56762686	      1.07455780	     15.18275700	    -11.17418361	      0.00000000	      0.00000000	     50.82918912	    -11.23729823	      2.17676593	     69.29282548	      1.20938795	    -12.72099911	     -6.96889054	      0.00000000	      0.00000000	    -60.47386004	      0.73236494	      1.53793570	     89.53915082	      0.34913460	     33.25160096	     44.90761057	     30.21619871	      0.00000000	      0.00000000	     89.38154995	    -20.56636241	     34.12221884	     43.05249968	     29.36407577	      0.00000000	      0.00000000
      7.50500000	    -17.42641986	     -3.25074135	     -7.13307619	      0.15789835	      1.15020658	     -0.23548004	      0.00000000	      0.50000000	      0.00000000	      0.25000000	     64.76624483	      6.01634709	      6.58554245	     59.17547695	      1.03280691	     14.26842225	    -11.21338417	      0.00000000	      0.00000000	     52.14697380	    -10.83775441	      2.35297306	     72.18145202	      1.25980400	    -11.98898530	     -6.69803447	      0.00000000	      0.00000000	    -60.43526863	      0.51057963	      1.12314249	     89.51344663	      0.32475080	     33.31087967	     44.79686143	     30.21418964	      0.00000000	      0.00000000	     89.38522401	    -20.63058118	     34.18384262	     43.39537185	     29.51918871	      0.00000000	      0.00000000
      7.51000000	    -17.13261586	     -2.44296748	     -6.76176695	      0.15861570	      1.14828439	     -0.23493568	      0.00000000	      0.50000000	      0.00000000	      0.25000000	     63.32453351	      5.21185853	      7.22156831	     57.05019086	      0.99571367	     13.67533391	    -10.89547292	      0.00000000	      0.00000000	     53.21219700	    -10.04700012	      2.18489536	     74.90016304	      1.30725446	    -11.70414601	     -6.79422837	      0.00000000	      0.00000000	    -60.49637323	      0.08821723	      0.35484588	     89.48071236	      0.12612025	     33.24141124	     44.75776810	     30.20624045	      0.00000000	      0.00000000	     89.39471996	    -20.44468179	     34.27073892	     43.48852830	     29.55348311	      0.00000000	      0.00000000
      7.51500000	    -17.04699777	     -2.06743625	     -6.31505776	      0.15920570	      1.14618917	     -0.23437780	      0.00000000	      0.50000000	      0.00000000	      0.25000000	     61.90524016	      4.63192292	      7.44731200	     54.60110659	      0.95296909	     12.29737468	    -11.49627176	      0.00000000	      0.00000000	     54.58247283	     -9.48736350	      2.61115944	     77.67593938	      1.35570089	    -10.64093166	     -6.34864889	      0.00000000	      0.00000000	    -60.42712580	      0.06555348	     -0.17636547	     89.45855866	      0.04993877	     33.60654212	     44.53206787	     30.24549861	      0.00000000	      0.00000000	     89.37949853	    -20.80578523	     34.53396087	     44.00194071	     29.77703095	      0.00000000	      0.00000000
      7.52000000	    -16.85118532	     -1.44775622	     -5.89714539	      0.15982541	      1.14408234	     -0.23366104	      0.00000000	      0.50000000	      0.00000000	      0.25000000	     60.43097987	      3.90127719	      7.81393748	     52.36764331	      0.91398780	     11.28667744	    -11.70517571	      0.00000000	      0.00000000	     55.80705841	     -8.79126734	      2.70033191	     80.32368984	      1.40191286	    -10.01369747	     -6.20807400	      0.00000000	      0.00000000	    -60.37400501	     -0.19806290	     -0.90787117	     89.42995606	     -0.10114351	     33.99061896	     44.26544694	     30.30767544	      0.00000000	      0.00000000	     89.36982311	    -21.07340218	     35.05269033	     44.34580744	     30.01290484	      0.00000000	      0.00000000
      7.52500000	    -16.62376327	     -0.59290293	     -5.40819269	      0.16054892	      1.14210500	     -0.23312015	      0.00000000	      0.50000000	      0.00000000	      0.25000000	     58.95191632	      2.88184256	      8.22272151	     50.23173332	      0.87670914	     10.56913148	    -11.40652772	      0.00000000	      0.00000000	     56.95621413	     -7.86901331	      2.57743618	     82.81636412	      1.44541823	     -9.52764767	     -6.23794819	      0.00000000	      0.00000000	    -60.35236233	     -0.56282688	     -1.71418877	     89.36927645	     -0.38554044	     34.02635444	     44.13709586	     30.33065573	      0.00000000	      0.00000000	     89.36998838	    -20.95232279	     35.21343359	     44.47794952	     30.09873674	      0.00000000	      0.00000000
